HIERARCHY
ROOT Hips
{
	OFFSET 54.209599 -31.445715 95.706192
	CHANNELS 6 Xposition Yposition Zposition Xrotation Yrotation Zrotation
	JOINT spine
	{
		OFFSET 0.000000 -0.458069 7.965683
		CHANNELS 3 Xrotation Yrotation Zrotation
		JOINT spine1
		{
			OFFSET 0.000000 -0.000002 10.243103
			CHANNELS 3 Xrotation Yrotation Zrotation
			JOINT spine2
			{
				OFFSET 0.000000 -0.000002 9.814751
				CHANNELS 3 Xrotation Yrotation Zrotation
				JOINT Neck
				{
					OFFSET 0.000000 -1.201384 25.198616
					CHANNELS 3 Xrotation Yrotation Zrotation
					JOINT Head
					{
						OFFSET 0.000000 -0.000004 7.613144
						CHANNELS 3 Xrotation Yrotation Zrotation
						End Site
						{
							OFFSET 0.000000 6.077328 18.428101
						}
					}
				}
				JOINT RightShoulder
				{
					OFFSET -4.132702 0.575451 10.599205
					CHANNELS 3 Xrotation Yrotation Zrotation
					JOINT RightArm
					{
						OFFSET 0.000000 -0.000004 13.901794
						CHANNELS 3 Xrotation Yrotation Zrotation
						JOINT RightArmRoll
						{
							OFFSET 0.000000 0.000000 7.017883
							CHANNELS 3 Xrotation Yrotation Zrotation
							JOINT RightForeArm
							{
								OFFSET 0.000000 -0.000004 20.440598
								CHANNELS 3 Xrotation Yrotation Zrotation
								JOINT RightForeArmRoll
								{
									OFFSET 0.000000 -0.000002 7.875153
									CHANNELS 3 Xrotation Yrotation Zrotation
									JOINT RightHand
									{
										OFFSET 0.000000 -0.000002 15.803696
										CHANNELS 3 Xrotation Yrotation Zrotation
										End Site
										{
											OFFSET 0.000000 0.000000 0.100006
										}
									}
								}
							}
						}
					}
				}
				JOINT LeftShoulder
				{
					OFFSET 4.132702 0.575451 10.599205
					CHANNELS 3 Xrotation Yrotation Zrotation
					JOINT LeftArm
					{
						OFFSET 0.000000 -0.000004 13.901794
						CHANNELS 3 Xrotation Yrotation Zrotation
						JOINT LeftArmRoll
						{
							OFFSET 0.000000 0.000000 7.017883
							CHANNELS 3 Xrotation Yrotation Zrotation
							JOINT LeftForeArm
							{
								OFFSET 0.000000 -0.000004 20.440598
								CHANNELS 3 Xrotation Yrotation Zrotation
								JOINT LeftForeArmRoll
								{
									OFFSET 0.000000 -0.000002 7.875153
									CHANNELS 3 Xrotation Yrotation Zrotation
									JOINT LeftHand
									{
										OFFSET 0.000000 -0.000002 15.803696
										CHANNELS 3 Xrotation Yrotation Zrotation
										End Site
										{
											OFFSET 0.000000 0.000000 0.100006
										}
									}
								}
							}
						}
					}
				}
			}
		}
	}
	JOINT RightUpLeg
	{
		OFFSET -7.060482 1.086100 -1.294701
		CHANNELS 3 Xrotation Yrotation Zrotation
		JOINT RightUpLegRoll
		{
			OFFSET 0.000000 -0.000004 18.530800
			CHANNELS 3 Xrotation Yrotation Zrotation
			JOINT RightLeg
			{
				OFFSET 0.000000 0.000004 -22.947601
				CHANNELS 3 Xrotation Yrotation Zrotation
				JOINT RightLegRoll
				{
					OFFSET 0.000000 -0.000004 23.022598
					CHANNELS 3 Xrotation Yrotation Zrotation
					JOINT RightFoot
					{
						OFFSET 0.000000 -0.000002 19.162506
						CHANNELS 3 Xrotation Yrotation Zrotation
						JOINT RightToeBase
						{
							OFFSET 0.000000 -0.000004 16.018799
							CHANNELS 3 Xrotation Yrotation Zrotation
							End Site
							{
								OFFSET 0.006790 0.894207 7.757828
							}
						}
					}
				}
			}
		}
	}
	JOINT LeftUpLeg
	{
		OFFSET 7.060482 1.086100 -1.294701
		CHANNELS 3 Xrotation Yrotation Zrotation
		JOINT LeftUpLegRoll
		{
			OFFSET 0.000000 -0.000004 18.530899
			CHANNELS 3 Xrotation Yrotation Zrotation
			JOINT LeftLeg
			{
				OFFSET 0.000000 -0.000004 22.947502
				CHANNELS 3 Xrotation Yrotation Zrotation
				JOINT LeftLegRoll
				{
					OFFSET 0.000000 -0.000004 23.235504
					CHANNELS 3 Xrotation Yrotation Zrotation
					JOINT LeftFoot
					{
						OFFSET 0.000000 -0.000002 18.949600
						CHANNELS 3 Xrotation Yrotation Zrotation
						JOINT LeftToeBase
						{
							OFFSET 0.000000 -0.000004 16.018799
							CHANNELS 3 Xrotation Yrotation Zrotation
							End Site
							{
								OFFSET -0.030430 0.894207 7.757812
							}
						}
					}
				}
			}
		}
	}
}
MOTION
Frames: 4
Frame Time: 0.041667
53.522408 -15.550616 90.708282 13.414801 0.658756 5.255775 -0.956015 0.167799 -0.270707 2.091608 0.337869 -0.540548 3.736652 0.331370 -0.544559 -1.265134 -4.536878 -1.845421 -5.856827 0.893947 -1.143684 -8.823290 -67.329935 -10.956051 -59.905827 -131.692304 -46.334589 0.000002 0.000003 -0.000005 0.033852 -4.406841 -0.657380 0.000001 0.000005 -3.105001 -4.999747 -7.998922 -0.000014 -3.087252 67.855867 4.547929 124.343034 49.319693 -143.795686 0.000005 0.000002 0.000004 -0.032405 -4.461901 -0.517573 0.000009 -0.000008 3.059779 -4.999677 7.999510 0.000220 -39.217853 -171.617423 -3.013054 179.999991 0.000004 -0.701005 146.432753 -3.240315 -2.251034 -0.000007 0.000005 0.367837 72.254078 6.289031 3.591060 25.459453 -7.351848 0.003800 -39.363196 175.982201 3.132359 0.000008 -0.000004 -0.804740 -33.965486 2.236284 1.505385 -0.000002 0.000000 -0.548969 72.603292 -6.627990 -2.613036 25.448670 7.355551 0.012124 
53.513302 -15.692110 90.806488 13.245039 0.676042 5.242190 -0.969749 0.165076 -0.270490 2.064126 0.332627 -0.540091 3.709182 0.326134 -0.544039 -1.031105 -4.567234 -1.809896 -5.800974 0.906256 -1.112774 -8.830166 -67.340044 -10.964424 -59.814992 -131.639930 -45.991813 -0.000001 0.000003 -0.000005 0.032189 -4.181611 -0.652639 0.000002 0.000006 -3.108180 -4.999748 -7.998920 -0.000014 -3.009462 67.885940 4.463593 124.424900 49.488412 -144.037830 0.000005 0.000002 0.000002 -0.032988 -4.550952 -0.525094 0.000008 -0.000008 3.060201 -4.999677 7.999510 0.000219 -38.772843 -171.690178 -3.009072 179.999991 0.000003 -0.704992 146.737448 -3.226561 -2.227352 -0.000006 0.000004 0.367717 72.232331 6.303659 3.550477 25.459453 -7.351847 0.003801 -38.938458 175.932983 3.114239 0.000012 -0.000004 -0.808326 -33.685636 2.234424 1.489558 -0.000002 0.000000 -0.548938 72.592876 -6.645324 -2.564217 25.445941 7.355536 0.016208 
53.509106 -15.813610 90.897888 13.076876 0.693599 5.228004 -0.983614 0.162463 -0.270284 2.036384 0.327596 -0.539643 3.681437 0.321108 -0.543530 -0.795851 -4.599058 -1.774390 -5.746872 0.919314 -1.081995 -8.837875 -67.352933 -10.973908 -59.727463 -131.585329 -45.655703 0.000001 0.000004 -0.000005 0.030564 -3.960390 -0.646584 0.000002 0.000006 -3.111270 -4.999749 -7.998922 -0.000014 -2.932732 67.913759 4.380298 124.511234 49.659027 -144.277474 0.000003 0.000001 0.000003 -0.033494 -4.631061 -0.532284 0.000007 -0.000008 3.060518 -4.999675 7.999510 0.000218 -38.330431 -171.763562 -3.006759 179.999991 0.000005 -0.708996 147.041911 -3.210847 -2.203812 -0.000006 0.000004 0.367599 72.209935 6.318318 3.509940 25.459452 -7.351848 0.003800 -38.516349 175.883068 3.095008 0.000009 -0.000005 -0.811939 -33.407282 2.232770 1.473824 -0.000003 0.000000 -0.548953 72.582317 -6.662835 -2.514934 25.443315 7.355514 0.020110 
53.507504 -15.953611 90.995392 12.910009 0.711209 5.213306 -0.997569 0.159950 -0.270099 2.008473 0.322752 -0.539225 3.653527 0.316269 -0.543054 -0.559340 -4.631480 -1.738859 -5.694838 0.932738 -1.051450 -8.845951 -67.367816 -10.983907 -59.643746 -131.527573 -45.327779 0.000002 0.000003 -0.000005 0.028983 -3.743550 -0.639437 0.000003 0.000006 -3.114241 -4.999748 -7.998921 -0.000014 -2.857079 67.940103 4.298111 124.599958 49.832514 -144.512377 0.000002 0.000002 0.000004 -0.033931 -4.702420 -0.539064 0.000009 -0.000009 3.060761 -4.999675 7.999511 0.000219 -37.890215 -171.838311 -3.004941 179.999991 0.000005 -0.713995 147.346155 -3.194863 -2.180504 -0.000007 0.000004 0.367485 72.186924 6.333001 3.469449 25.459452 -7.351849 0.003800 -38.097115 175.833234 3.074721 0.000010 -0.000005 -0.815575 -33.130738 2.231064 1.458165 -0.000004 0.000000 -0.548975 72.571361 -6.680382 -2.465586 25.440991 7.355502 0.023529 
